<?xml version="1.0" standalone="no"?>
<!DOCTYPE svg PUBLIC "-//W3C//DTD SVG 20010904//EN"
 "http://www.w3.org/TR/2001/REC-SVG-20010904/DTD/svg10.dtd">
<svg version="1.0" xmlns="http://www.w3.org/2000/svg"
 width="178.000000pt" height="100.000000pt" viewBox="0 0 178.000000 100.000000"
 preserveAspectRatio="xMidYMid meet">
<metadata>
Created by potrace 1.15, written by Peter Selinger 2001-2017
</metadata>
<g transform="translate(0.000000,100.000000) scale(0.100000,-0.100000)"
fill="#fff" stroke="none">
<path d="M850 642 l0 -160 30 -4 c29 -4 30 -4 24 32 -7 45 16 74 50 64 29 -9
82 -61 96 -94 10 -25 18 -29 61 -32 27 -1 48 0 47 4 -2 4 -72 84 -155 178
l-153 171 0 -159z"/>
<path d="M691 676 c-56 -63 -101 -117 -101 -119 0 -14 54 -16 69 -3 9 8 28 17
42 21 29 7 45 -7 51 -45 2 -17 10 -26 26 -28 22 -3 22 -3 22 142 0 80 -2 146
-4 146 -2 0 -49 -51 -105 -114z"/>
<path d="M404 601 c3 -4 38 -20 78 -36 40 -15 75 -30 77 -32 3 -2 -11 -20 -30
-41 -19 -20 -45 -49 -58 -64 l-24 -28 64 0 65 0 12 43 c20 71 22 73 87 57 31
-7 58 -17 61 -22 3 -5 -4 -24 -15 -43 l-20 -35 49 0 c49 0 50 1 50 30 0 25 4
30 25 30 21 0 25 -5 25 -30 0 -29 1 -30 50 -30 48 0 63 11 38 27 -9 5 -3 10
17 14 l30 7 -28 1 c-82 3 -325 68 -470 125 -48 19 -85 31 -83 27z"/>
<path d="M533 350 c-3 -11 -10 -20 -15 -20 -7 0 -7 -4 0 -13 6 -7 12 -30 15
-52 l4 -40 1 43 2 42 40 0 c22 0 40 -4 40 -9 0 -4 -11 -6 -25 -3 -20 3 -25 0
-25 -16 0 -23 4 -27 43 -36 26 -6 27 -5 27 29 0 41 17 47 22 8 2 -21 8 -27 22
-25 10 2 23 -2 27 -10 6 -8 9 0 9 25 0 55 28 50 33 -5 l4 -43 1 43 c2 41 3 42
37 42 19 0 35 -4 35 -10 0 -5 -12 -10 -26 -10 -14 0 -23 -4 -20 -9 3 -5 15 -7
25 -4 14 4 21 -1 24 -19 3 -15 5 -11 6 15 1 43 31 55 31 12 0 -22 9 -30 33
-26 4 0 7 -4 7 -9 0 -6 5 -10 11 -10 6 0 8 8 4 19 -11 35 4 51 49 49 36 -1 37
-2 9 -5 -18 -2 -33 -8 -33 -14 0 -5 4 -9 9 -9 5 0 12 -8 14 -17 4 -17 5 -17 6
0 1 24 31 22 31 -3 0 -11 5 -20 10 -20 6 0 10 16 10 35 0 33 2 35 36 35 21 0
33 -4 29 -10 -3 -5 -15 -10 -26 -10 -11 0 -18 -4 -15 -9 3 -5 15 -7 25 -4 15
4 20 -1 24 -24 3 -24 4 -23 6 9 0 20 4 43 7 52 6 14 -24 16 -285 16 -187 0
-291 4 -291 10 0 6 10 10 23 10 18 0 19 2 7 10 -22 15 -31 12 -37 -10z"/>
<path d="M16 322 c-3 -5 1 -23 9 -40 12 -22 21 -29 35 -25 11 3 20 0 20 -6 0
-6 5 -11 10 -11 6 0 10 16 10 35 0 19 5 35 10 35 6 0 10 -16 10 -35 0 -19 5
-35 10 -35 6 0 10 16 10 35 0 28 4 35 20 35 11 0 20 -7 20 -15 0 -8 -5 -15
-11 -15 -5 0 -7 -5 -4 -10 9 -15 25 -2 25 21 0 16 7 19 43 18 34 0 38 -2 21
-9 -28 -11 -35 -23 -23 -40 7 -13 9 -12 9 3 0 9 7 17 15 17 8 0 15 -9 15 -20
0 -11 4 -20 9 -20 4 0 7 16 4 35 -2 26 0 35 11 35 10 0 16 -13 19 -37 l4 -38
1 38 c2 33 5 37 29 37 21 0 24 -3 15 -12 -17 -17 -15 -29 3 -22 8 4 15 12 15
20 0 8 5 14 10 14 21 0 10 -42 -12 -48 -21 -5 -21 -6 7 -13 16 -5 30 -7 31 -6
1 1 4 20 6 42 l3 40 -177 3 -178 2 7 -31 c5 -24 3 -31 -8 -27 -7 2 -16 15 -19
28 -6 25 -24 37 -34 22z"/>
<path d="M1393 323 c-8 -3 -10 -15 -6 -36 7 -36 19 -48 41 -40 8 3 18 0 23 -8
6 -9 9 0 9 29 0 41 1 42 35 42 31 0 34 -3 31 -22 -1 -13 -11 -25 -22 -27 -18
-3 -18 -2 1 19 20 22 20 22 0 19 -26 -5 -32 -37 -8 -45 10 -3 26 -9 35 -14 13
-7 17 -5 20 13 2 12 8 21 13 19 6 -2 8 -11 7 -20 -3 -12 -1 -14 7 -6 14 13 4
44 -15 44 -8 0 -14 5 -14 10 0 6 16 10 35 10 24 0 35 -5 35 -15 0 -8 -5 -15
-11 -15 -5 0 -7 -5 -4 -10 9 -15 25 -2 25 21 0 32 38 25 42 -8 2 -20 9 -28 23
-28 14 0 21 8 23 28 5 39 22 33 22 -8 0 -19 5 -35 10 -35 6 0 10 13 10 29 0
16 3 36 6 45 5 14 -13 16 -165 16 -97 0 -171 -4 -171 -9 0 -5 6 -11 13 -14 17
-6 -4 -41 -29 -46 -15 -3 -16 -1 -6 12 9 10 10 17 2 22 -5 3 -10 12 -10 18 0
7 4 6 10 -3 6 -9 10 -10 10 -3 0 15 -11 22 -27 16z"/>
</g>
</svg>
